<?xml version="1.0" encoding="UTF-8" standalone="no"?><!DOCTYPE svg PUBLIC "-//W3C//DTD SVG 1.1//EN" "http://www.w3.org/Graphics/SVG/1.1/DTD/svg11.dtd"><svg width="100%" height="100%" viewBox="0 0 1250 1250" version="1.1" xmlns="http://www.w3.org/2000/svg" xmlns:xlink="http://www.w3.org/1999/xlink" xml:space="preserve" xmlns:serif="http://www.serif.com/" style="fill-rule:evenodd;clip-rule:evenodd;stroke-linejoin:round;stroke-miterlimit:2;"><g id="Background"><path d="M4135.417,1291.663l-4139.583,0c-5.831,-6.89 0,-18.053 0,-27.079l0,-1314.583c8.951,-4.82 9.741,0 127.083,0l4139.579,0c4.819,8.952 -0,9.741 -0,127.083l0,1214.579c-8.951,4.819 -9.741,0 -127.079,0Z" style="fill:#e4eeda;"/><path d="M20.69,664.582c-1.142,-29.792 -8.012,-208.946 91.522,-361.255c266.827,-408.306 830.704,-359.309 1045.904,22.814c179.832,319.322 1.413,598.815 -0.098,601.806c-24.995,49.481 -88.531,130.072 -161.556,184.77c-398.194,298.256 -949.211,21.021 -975.771,-448.134Z" style="fill:#b8c36c;"/><path d="M62.649,685.437c-4.321,-68.752 -4.779,-68.704 3.329,-137.293c20.365,-172.268 133.95,-334.161 287.09,-419.301c197.947,-110.051 394.871,-63.44 449.419,-44.544c464.685,160.973 512.958,734.406 176.121,990.563c-274.421,208.691 -537.298,89.84 -581.548,70.952c-145.698,-62.188 -221.154,-176.176 -235.656,-194.496c-38.857,-49.086 -93.24,-177.975 -98.755,-265.882Z" style="fill:#e4eeda;"/><path d="M694.057,235.48c1.489,-8.505 4.224,-9.245 -1.322,-15.926c-7.751,-9.338 -12.034,7.97 -31.837,-1.875c-15.08,-7.497 -9.646,-23.744 -1.11,-14.951c18.537,19.094 20.406,-4.724 20.602,-5.278c0.193,-0.543 19.847,-15.236 5.388,-21.108c-9.783,-3.973 -9.471,-4.113 -17.204,-11.53c-4.224,-4.051 -14.424,5.647 -18.891,1.943c-8.445,-7.002 11.585,-14.036 11.68,-14.313c2.424,-7.091 -11.124,-11.278 -12.681,-13.351c-15.71,-20.919 103.008,3.072 149.668,20.184c382.454,140.263 432.899,645.126 127.466,866.094c-18.306,13.243 -126.512,91.526 -265.333,96.762c-7.867,0.297 -7.241,-19.495 -6.815,-36.619c0.68,-27.345 -3.073,-26.902 -3.059,-54.233c0.026,-53.955 25.527,-41.072 34.972,-45.519c37.727,-17.764 64.157,5.19 74.98,0c13.753,-6.595 13.968,-5.496 29.002,-5.038c12.282,0.374 16.549,-11.671 28.932,-10.122c2.192,0.274 49.638,6.209 23.962,-13.725c-8.112,-6.298 6.18,-6.928 6.596,-7.153c13.849,-7.456 -11.5,-16.022 -15.793,-20.454c-22.214,-22.935 -22.487,26.339 -31.19,26.524c-10.53,0.223 0.819,-22.155 0.708,-24.722c-0.939,-21.782 -39.294,-11.002 -28.182,3.14c14.543,18.509 -11.355,8.045 -25.679,23.033c-13.145,13.754 -15.065,11.327 -33.901,9.462c-10.591,-1.049 -1.031,-15.356 12.017,-15.835c12.691,-0.466 11.975,-2.304 21.467,-10.568c22.652,-19.723 -12.772,-24.838 -17.519,-22.216c-15.61,8.623 -15.913,10.076 -33.127,5.465c-2.003,-0.537 -19.335,8.204 -17.682,-5c1.678,-13.408 55.263,8.513 37.751,-11.595c-9.773,-11.222 -1.046,-17.092 12.367,-11.226c19.609,8.576 41.893,2.688 22.705,-7.1c-6.859,-3.499 -4.472,-7.774 2.959,-8.447c17.004,-1.54 16.891,-6.08 24.97,-8.403c2.057,-0.591 39.331,-11.308 21.431,-16.022c-25.175,-6.629 -28.367,5.636 -33.863,7.918c-13.993,5.809 -1.182,-9.746 -10.172,-21.742c2.869,-3.493 1.118,-7.317 10.312,-5.842c14.597,2.342 14.392,0.846 15.538,1.339c8.684,3.742 8.836,2.373 18.145,-0.259c11.837,-3.346 45.943,9.338 49.761,10.758c1.962,0.73 24.016,1.403 1.505,-26.121c-2.162,-2.644 -3.321,-14.076 -8.972,-17.147c-8.924,-4.85 -6.584,-7.163 -14.13,-14.19c-1.622,-1.511 -45.289,-10.562 -47.748,-4.309c-14.284,36.333 28.781,21.056 25.703,32.106c-2.279,8.179 -39.818,7.96 -46.324,8.555c-11.185,-26.175 -27.433,-0.786 -27.747,-0.464c-7.899,2.883 -7.669,2.986 -8.354,3.192c-3.455,-0.448 -3.242,-0.169 -10.7,0.346c-3.022,0.062 -46.445,1.91 -33.896,-10.963c1.459,-1.497 3.4,3.09 24.497,-9.102c9.946,-5.748 48.501,4.181 26.33,-17.17c-7.707,-7.422 8.919,-12.527 14.556,1.699c10.714,27.038 22.207,1.344 15.844,-7.355c-26.955,-36.847 16.11,-17.125 26.693,-13.517c4.731,1.697 4.589,1.457 9.033,-0.169c10.784,-15.234 15.437,-8.018 24.655,-8.229c1.181,-0.027 13.634,-10.21 -8.788,-11.872c-10.59,-0.785 -14.284,-10.024 -3.846,-9.797c37.575,0.817 15.942,-27.204 -0.354,-31.737c-32.958,-9.168 -26.805,10.051 -27.494,15.749c-0.698,5.772 -14.106,7.54 -16.015,2.533c-8.312,-21.806 35.667,-30.089 38.498,-33.047c3.015,-3.149 12.592,-18.44 -44.859,-30.931c-19.53,-4.246 -19.982,3.462 -19.066,23.495c-3.444,2.484 -6.888,4.968 -10.332,7.453c-4.064,7.754 0.793,10.477 -6.686,15.189c-16.614,10.466 8.219,17.347 8.09,27.563c-0.414,32.778 -10.479,-28.193 -42.616,-21.478c-0.43,-0.543 -0.27,-0.572 -4.006,-7.679c1.407,-1.137 14.894,-12.042 8.345,-21.018c-8.888,-12.18 -11.448,-3.217 -21.91,7.463c-19.542,19.95 -22.227,-10.77 -14.199,-18.269c0.638,-0.596 35.564,-14.791 36.124,-14.721c7.16,0.907 -5.258,16.156 12.494,20.084c12.317,2.726 11.011,-3.104 10.946,-15.678c-0.04,-7.76 18.054,1.294 18.794,-16.306c0.681,-16.185 6.67,-13.797 12.555,-28.851c4.696,-12.011 7.379,-10.956 19.924,-8.105c23.253,5.286 1.077,-24.689 5.419,-33.334c7.936,-15.8 8.014,-24.917 -9.507,-21.743c-25.912,4.695 -35.794,-7.902 -43.352,17.163c-8.461,-0.995 -7.825,1.326 -12.163,8.635c-3.491,-0.264 -7.098,-6.678 -22.558,7.741l-5.276,-4.226c1.021,-1.493 8.64,-12.631 17.157,-14.718c7.595,-1.861 12.588,5.307 16.354,-5.876c7.919,-23.519 15.306,-15.901 28.355,-17.587c6.234,-0.805 7.127,-16.69 17.989,-22.964c11.538,-6.664 10.24,-9.806 2.836,-20.582c-4.508,-3.784 -9.481,-6.007 -10.371,-6.405c-8.238,-5.715 -8.752,-3.983 -18.62,-6.16c-7.485,-1.652 -0.877,-13.3 -0.312,-14.295c13.255,-23.366 -0.36,-31.423 -4.477,-40.683c-8.474,-19.06 -16.792,-14.065 -22.584,-34.344c-5.932,-20.769 -34.872,-5.741 -41.734,-9.623c-14.704,-8.317 30.262,-27.683 32.426,-39.84c4.278,-24.041 -23.692,-16.089 -28.341,-29.435c-4.51,-12.947 88.809,2.578 45.821,-17.841c-4.361,-2.071 -2.365,-10.182 -13.212,-12.234c-23.626,-4.469 -0.607,-9.957 0.184,-10.138c12.916,-2.971 -6.597,-18.356 7.483,-22.851c19.256,-6.148 5.9,-20.951 -12.251,-24.111l-3.829,-4.205Z" style="fill:#556c31;"/><path d="M572.964,315.437c7.455,4.261 22.394,12.708 24.958,7.492c4.414,-8.981 0.767,-10.256 12.498,-29.175c3.198,-5.159 8.554,0.016 6.969,3.931c-1.373,3.39 -21.892,29.358 -1.837,40.53c3.324,1.852 39.288,-4.517 20.796,10.769c-12.27,10.143 -16.693,-5.254 -29.319,4.108c-2.472,1.833 -27.006,20.023 -33.782,18.405c-49.684,-11.861 -26.76,19.322 -24.522,20.565c10.98,6.097 20.747,-21.472 31.014,2.366c3.05,7.082 33.117,4.666 24.638,13.918c-1.733,1.891 -2.388,-1.776 -31.705,4.814c-2.638,0.593 -26.557,-10.303 -22.12,14.228c4.879,26.976 10.071,24.38 19.397,31.39c9.242,6.948 -2.653,17.975 -2.849,22.044c-0.473,9.819 1.218,10.816 -2.552,12.555c-1.349,0.622 0.609,-3.164 -15.857,-9.666c-7.036,-2.779 -9.46,-33.147 -37.555,-13.778c-1.922,1.325 0.505,3.537 -19.742,21.48c-3.592,3.183 -2.518,22.476 26.768,13.603c1.11,-0.336 23.039,-6.98 13.379,5.586c-2.222,2.89 -39.317,10.404 -49.402,-4.993c-17.857,-27.261 -37.02,38.857 -0.83,35.136c13.351,-1.373 18.931,-6.893 18.363,3.225c-0.464,8.26 -28.301,5.461 -32.664,10.675c-5.383,6.433 -6.835,3.25 -15.14,4.909c-5.248,1.048 -6.112,11.451 -20.666,9.931c-25.261,-2.638 -6.695,11.53 -4.397,12.404c16.341,6.212 20.166,3.537 25.125,20.247c1.281,4.315 -1.84,14.663 0.244,16.556c1.58,1.434 4.34,1.002 5.92,2.437c4.241,1.824 4.311,1.699 6.454,5.916c-6.824,1.604 -6.439,1.519 -12.909,2.926c-20.718,4.506 -23.009,-2.745 -39.799,10.369c-0.498,0.591 -0.02,0.75 -5.362,8.03c-8.523,6.229 -4.591,8.833 2.892,13.694c11.466,7.449 4.76,12.757 15.286,21.311l0.549,9.766c0.405,1.204 -3.353,2.817 7.845,16.532c-0.761,2.591 -1.522,5.182 -2.283,7.773c-3.171,1.181 -24.163,8.996 -29.713,30.097c-0.906,3.446 8.755,25.162 22.145,22.284c16.614,-3.57 14.797,3.396 28.66,16.854c2.01,3.781 4.02,7.563 6.03,11.344c-0.864,9.894 4.245,15.191 -5.636,15.023c-2.787,-0.047 -25.967,-40.344 -41.364,-22.994c-6.853,7.723 2.917,17.155 -8.799,16.529c-23.423,-1.251 -26.138,32.895 -7.99,35.557c7.86,1.153 25.038,-4.853 13.807,14.812c-12.472,21.838 -1.62,23.228 -3.107,32.429c-2.247,13.91 -4.655,15.169 4.943,25.794c3.718,4.116 5.588,37.16 28.887,22.803c16.797,-10.35 13.859,7.851 25.964,9.902c10.975,1.859 11.302,-1.258 21.413,2.794c4.981,1.996 12.61,-2.579 18.274,6.609c8.872,14.39 10.585,13.951 27.699,13.794l1.225,6.708c-0.799,1.797 -3.432,2.314 -4.231,4.11c-1.002,2.253 17.927,23.819 39.811,16.105c11.437,-4.031 7.986,7.493 21.174,10.509c24.047,5.499 15.473,14.932 15.314,68.577c-0.053,18.124 1.14,45.384 -7.426,45.071c-343.285,-12.516 -615.17,-424.423 -376.52,-779.474c158.216,-235.386 475.321,-224.689 401.467,-203.325c-7.962,2.303 -25.037,28.042 -3.741,21.875c0.756,-0.219 18.882,-15.073 16.557,-0.778c-1.603,9.859 -23.26,13.065 -23.326,13.226c-0.998,2.447 -0.693,5.268 -1.502,7.784c-2.087,6.495 -15.468,-1.445 -20.859,4.299c-2.038,2.171 -3.365,4.933 -5.352,7.151c-3.642,4.066 -12.91,-0.868 -16.247,29.992c-2.282,21.105 16.871,-7.785 25.212,-7.068c29.878,2.567 26.765,-18.341 37.17,-12.718c5.457,2.949 8.974,12.694 4.151,13.676c-0.372,0.076 -5.557,-2.089 -12.198,1.636c-11.628,6.522 -11.283,6.894 -24.655,8.916c-10.716,1.62 -8.216,9.792 -3.951,10.345c0.74,0.096 13.028,-6.143 15.845,10.292c3.998,23.326 -29.302,-10.421 -36.942,8.289c-6.076,14.88 -24.476,5.354 -22.016,25.07c0.516,4.139 1.575,8.198 2.098,12.336c0.506,4.012 -3.528,17.259 -0.658,20.699c0.172,0.206 -0.538,3.944 20.585,1.06Z" style="fill:#556c31;"/><path d="M762.113,826.825c6.506,-0.595 44.045,-0.376 46.324,-8.555c3.078,-11.05 -39.988,4.227 -25.703,-32.106c2.459,-6.254 46.126,2.798 47.748,4.309c7.545,7.027 5.205,9.34 14.13,14.19c5.651,3.071 6.809,14.503 8.972,17.147c22.51,27.523 0.457,26.85 -1.505,26.121c-3.817,-1.42 -37.923,-14.104 -49.761,-10.758c-9.31,2.632 -9.461,4 -18.145,0.259c-1.146,-0.494 -0.941,1.002 -15.538,-1.339c-9.195,-1.475 -7.444,2.349 -10.312,5.842c-9.431,-1.383 -9.016,-1.959 -18.629,-2.733c-7.038,-0.566 -2.285,-3.736 1.944,-9.353c16.38,2.4 16.707,3.612 18.866,1.48c1.134,-1.12 0.478,-3.382 1.612,-4.502Z" style="fill:#f6f6f3;"/><path d="M537.956,889.964c23.988,-19.141 33.163,-27.116 56.004,-13.127c5.407,3.312 -5.215,12.271 8.53,15.325c25.787,5.729 -6.791,15.411 -7.44,16.041c-10.529,10.214 -12.233,6.807 -12.52,5.743c-1.513,-5.603 3.194,-19.748 -18.352,-13.05c-11.422,3.551 -24.597,-9.342 -26.222,-10.932Z" style="fill:#566d32;"/><path d="M451.855,786.678c13.592,-4.099 14.241,-7.899 28.989,-0.437c10.275,5.198 13.482,0.884 18.784,11.037c2.616,5.011 35.394,27.712 61.557,5.594c7.757,-6.558 20.583,-1.723 9.393,5.254c-20.649,12.873 -21.834,16.746 -39.301,11.203c-8.799,-2.793 -14.123,5.767 -19.419,1.714c-6.569,-5.027 -5.766,-10.287 -22.258,-10.092c-13.084,0.154 -11.343,-11.973 -20.965,-17.042c-9.924,-5.228 -8.512,1.322 -10.75,4.114c-2.01,-3.781 -4.02,-7.563 -6.03,-11.344Z" style="fill:#687b46;"/><path d="M534.26,886.623c-2.234,-2.942 -28.356,-37.337 -42.056,-19.075c-3.855,5.139 -20.783,16.814 -12.228,-3.28c3.941,-9.257 -24.399,-22.662 -11.636,-25.446c7.455,-1.626 13.667,11.094 18.062,6.279c15.591,-17.078 17.168,11.133 40.793,18.82c5.28,1.718 25.275,1.307 7.066,22.702Z" style="fill:#5d7239;"/><path d="M534.34,699.23c24.776,16.869 16.939,24.242 26.873,31.473c0.17,0.124 7.525,1.5 16.012,8.695c12.236,10.372 9.097,21.745 0.428,15.851c-2.305,-1.567 -12.761,-16.187 -21.564,-16.323c-2.788,-0.043 -5.312,1.838 -8.082,2.164c-14.016,1.65 1.239,-16.802 -5.649,-24.425c-1.539,-1.704 -19.862,-11.175 -21.024,-3.003c-1.577,11.085 2.005,20.501 -7.155,13.959c-4.529,-3.234 -9.85,-43.209 20.161,-28.39Z" style="fill:#61753d;"/><path d="M685.549,710.536c3.736,7.108 3.576,7.136 4.006,7.679c-8.683,3.849 -9.835,1.903 -15.518,9.562c-16.547,22.299 -14.344,23.483 -14.244,24.417c2.252,21.218 40.36,2.947 25.952,16.805c-17.283,16.624 -24.482,1.797 -25.689,1.242c-11.17,-5.138 -11.223,-7.609 -9.386,-43.243c0.855,-16.576 12.044,-5.672 34.88,-16.463Z" style="fill:#61753e;"/><path d="M581.57,779.851c-44.892,-20.466 -46.149,-19.27 -48.745,-24.247c-5.941,-11.394 21.571,0.254 23.288,0.981c43.839,18.56 44.894,15.851 48.328,18.145c16.856,11.261 -21.018,5.407 -22.871,5.121Z" style="fill:#5a7036;"/><path d="M506.333,891.862c12.497,3.452 10.308,7.094 21.757,12.602c5.028,2.419 10.325,4.24 15.41,6.537c19.801,8.946 9.68,14.715 8.325,14.796c-4.252,0.254 -3.113,-2.182 -48.862,-21.143c-10.322,-4.278 -7.303,-10.395 3.37,-12.792Z" style="fill:#5a7036;"/><path d="M531.978,971.075c5.497,-1.553 26.93,-14.805 43.981,-1.201c12.352,9.855 31.296,7.183 17.186,14.282c-10.245,5.154 -25.361,-14.916 -49.409,-7.853c-5.148,1.512 -4.903,0.689 -10.534,1.48l-1.225,-6.708Z" style="fill:#6c7e49;"/><path d="M693.749,839.68c-0.794,3.017 -1.589,6.033 -2.383,9.05c-2.922,6.3 -2.884,6.269 -3.156,6.804c-4.466,8.774 -36.141,-2.034 -36.44,-3.334c-2.408,-10.508 9.87,-9.694 41.979,-12.519Z" style="fill:#596f35;"/><path d="M681.185,589.372l5.276,4.226c-2.28,14.633 4.823,20.075 -9.355,24.248c-2.647,-3.957 -5.294,-7.913 -7.941,-11.87c-7.768,-4.183 -7.73,-4.136 -8.389,-4.518c-15.704,-9.093 -8.512,-21.645 -0.965,-15.327c9.244,7.739 10.139,8.185 21.375,3.241Z" style="fill:#5d7239;"/><path d="M741.1,689.488c1.594,1.905 2.195,4.511 3.789,6.416c4.111,4.913 15.292,0.712 8.581,11.134c-3.639,5.652 7.477,24.279 -5.402,25.649c-12.086,1.285 -4.181,-6.101 -5.426,-18.086c-1.792,-17.242 -8.502,-14.492 -11.873,-17.661c3.444,-2.484 6.888,-4.968 10.332,-7.453Z" style="fill:#5f733a;"/><path d="M458.091,621.127c21.801,-3.55 24.734,1.495 39.205,-15.406c9.173,-10.714 12.672,1.372 7.225,7.281c-11.157,12.104 -10.648,15.91 -27.041,13.647c-1.173,-0.162 -11.901,0.346 -12.935,0.395c-2.143,-4.217 -2.213,-4.092 -6.454,-5.916Z" style="fill:#6f814f;"/><path d="M726.012,829.554c0.354,14.057 0.975,13.736 -1.538,27.169c-0.14,0.748 -12.915,27.631 -9.496,-0.465c1.771,-14.549 -16.788,-8.224 -23.613,-7.528c0.794,-3.017 1.589,-6.033 2.383,-9.05l19.789,-1.843c9.941,-2.697 10.162,-2.219 10.723,-2.909c1.189,-1.462 0.562,-3.913 1.751,-5.375Z" style="fill:#667a44;"/><path d="M609.208,531.521c-2.814,-9.016 -3.057,-8.578 -7.19,-16.909c-7.134,-14.382 2.567,-16.582 4.656,-13.01c18.085,30.929 17.327,34.863 16.697,38.133c-0.248,1.286 -6.104,11.592 -14.162,-8.213Z" style="fill:#62763f;"/><path d="M697.485,540.345c-6.434,-2.551 -6.419,-2.477 -6.949,-2.756c-14.98,-7.88 23.72,-21.401 25.007,-15.066c5.006,24.637 -16.112,18.397 -18.058,17.821Z" style="fill:#576d33;"/><path d="M681.495,474.665c0.893,1.249 3.612,-0.285 4.505,0.964c0,0 0.623,8.813 0.678,9.579c1.361,12.095 -1.702,13.784 -13.602,11.952c-7.496,-1.154 -6.014,-10.923 -5.854,-11.977c1.484,-9.778 5.036,-6.896 14.274,-10.518Z" style="fill:#596f34;"/><path d="M734.366,826.362c0.314,-0.323 16.562,-25.711 27.747,0.464c-1.134,1.12 -0.478,3.382 -1.612,4.502c-2.158,2.132 -2.485,0.921 -18.866,-1.48l-7.27,-3.486Z" style="fill:#fcfcfb;"/><path d="M669.165,605.977c2.647,3.957 5.294,7.913 7.941,11.87c-19.441,5.925 -22.582,30.19 -25.307,13.53c-3.903,-23.863 16.157,-15.189 18.846,-20.864c0.681,-1.437 -2.162,-3.098 -1.481,-4.536Z" style="fill:#748654;"/><path d="M655.493,434.757c6.181,-9.369 6.073,-9.359 6.676,-10.119c5.873,-7.395 14.254,7.511 2.058,18.694c-0.722,0.662 -24.759,15.353 -8.733,-8.575Z" style="fill:#5b7037;"/><path d="M532.545,617.209c-4.667,-3.508 -4.307,-3.21 -4.667,-3.508c-10.93,-9.038 6.31,-9.662 11.793,-11.289c10.689,-3.173 13.636,21.65 -7.126,14.797Z" style="fill:#60753d;"/><path d="M681.495,474.665c15.089,-6.927 26.33,-35.902 23.951,-14.3c-0.914,8.299 -1.349,8.574 -18.768,24.843c-0.054,-0.766 -0.678,-9.579 -0.678,-9.579c-0.893,-1.249 -3.612,0.285 -4.505,-0.964Z" style="fill:#7a8b5b;"/><path d="M411.837,640.339c1.281,1.107 -0.848,4.43 6.772,5.854c15.74,2.942 24.566,-1.652 19.66,9.229c-3.223,7.148 -29.461,-5.893 -31.794,-7.053c5.342,-7.279 4.865,-7.439 5.362,-8.03Z" style="fill:#778857;"/><path d="M694.057,235.48l3.829,4.205c-8.909,3.807 -11.509,2.823 -11.128,12.281c0.724,17.952 -19.563,-8.005 -5.001,-15.185c0.887,-0.438 0.911,-0.096 12.3,-1.301Z" style="fill:#849265;"/><path d="M601.86,823.395c0.707,0.483 21.456,22.718 -4.884,9.52c-1.172,-0.587 -17.996,-9.017 -10.726,-12.396c3.31,-1.539 14.414,2.448 15.609,2.877Z" style="fill:#60753d;"/><path d="M656.944,817.317c-18.944,-20.412 13.034,-15.7 12.897,-6.854c-0.127,8.218 -11.735,6.978 -12.897,6.854Z" style="fill:#5a7036;"/><path d="M597.842,635.095c6.321,0.573 8.784,-2.202 9.906,4.129c0.148,0.835 1.514,8.541 -5.643,8.976c-0.536,0.033 -16.603,-4.441 -16.645,-4.492c-6.698,-8.128 2.256,-5.618 12.382,-8.613Z" style="fill:#62763f;"/><path d="M597.495,741.171c-23.91,-12.508 11.027,-13.55 15.853,-4.981c4.617,8.198 -14.539,5.187 -15.853,4.981Z" style="fill:#5d7239;"/><path d="M673.924,971.504c-6.565,-8.758 -3.328,-12.366 7.41,-12.117c9.641,0.223 11.376,18.146 -7.41,12.117Z" style="fill:#5c7138;"/><path d="M721.182,577.223c0.602,6.273 0.308,6.018 1.193,12.43c0.661,4.79 -10.837,18.156 -13.356,-3.795c4.338,-7.309 3.702,-9.63 12.163,-8.635Z" style="fill:#647842;"/><path d="M586.871,498.672c-1.038,1.333 -13.625,17.49 -17.726,11.487c-3.109,-4.551 26.918,-36.728 17.726,-11.487Z" style="fill:#808f61;"/><path d="M580.515,302.134c4.9,-21.832 12.854,-13.935 13.078,-12.505c1.016,6.49 -6.182,23.65 -12.445,16.669c-0.938,-1.045 0.305,-3.12 -0.633,-4.165Z" style="fill:#5e733b;"/><path d="M585.425,686.772c12.131,1.518 18.726,-2.075 15.281,6.077c-1.779,4.21 -14.019,3.758 -15.275,3.711c-26.063,-0.962 -0.761,-9.58 -0.006,-9.788Z" style="fill:#657842;"/><path d="M657.208,893.073c-1.598,-7.263 -4.331,-11.212 3.126,-10.162c2.913,0.41 11.837,4.343 12.609,6.659c0.408,1.223 3.68,16.775 -15.735,3.503Z" style="fill:#5c7138;"/><path d="M424.653,683.373c1.627,-0.453 31.768,-8.853 20.881,3.106c-7.578,8.324 -10.004,2.57 -20.332,6.66l-0.549,-9.766Z" style="fill:#718250;"/><path d="M443.25,862.346c24.532,12.379 -10.163,15.203 -12.083,6.436c-1.96,-8.948 2.918,-6.944 12.083,-6.436Z" style="fill:#5c7238;"/><path d="M753.504,501.241c0.89,0.398 5.863,2.621 10.371,6.405c-9.629,6.583 -3.874,15.878 -15.676,14.487c-9.358,-1.103 4.863,-20.215 5.305,-20.892Z" style="fill:#7a8a5b;"/><path d="M581.625,615.007c-23.002,7.885 -7.541,-12.101 -0.357,-12.575c1.004,-0.066 11.218,-0.398 0.357,12.575Z" style="fill:#5c7137;"/><path d="M649.959,285.478c0.358,-0.848 10.087,-18.654 10.748,4.106c1.187,40.858 -10.589,-3.199 -10.748,-4.106Z" style="fill:#61763e;"/><path d="M606.165,802.265c-20.93,-13.292 7.911,-13.988 9.583,-9.037c2.871,8.501 -0.766,8.738 -9.583,9.037Z" style="fill:#62763e;"/><path d="M583.873,539.601c-1.723,7.238 -0.262,11.008 -7.106,8.89c-2.172,-0.672 -6.89,-8.983 -2.008,-15.684c0.536,-0.735 8.099,-10.541 9.114,6.794Z" style="fill:#5d7239;"/><path d="M616.002,422.636c2.591,-7.585 3.529,-11.576 9.536,-6.248c5.078,4.504 -1.548,26.306 -9.536,6.248Z" style="fill:#5d7239;"/><path d="M520.862,779.36c-21.586,7.502 -15.82,-5.885 -14.817,-6.715c0.491,-0.406 14.949,-4.898 14.817,6.715Z" style="fill:#647841;"/><path d="M452.209,732.547c0.899,0.098 12.856,1.394 8.616,7.322c-3.655,5.11 -32.809,1.048 -8.616,-7.322Z" style="fill:#8a966d;"/><path d="M433.047,709.671c9.608,1.624 9.596,1.438 10.376,1.754c52.973,21.484 -11.579,6.318 -12.659,6.019c0.761,-2.591 1.522,-5.182 2.283,-7.773Z" style="fill:#939f78;"/><path d="M501.661,682.808c-4.352,-4.718 -8.463,-5.105 -3.503,-9.571c2.436,-2.194 24.908,2.236 3.503,9.571Z" style="fill:#5e733a;"/><path d="M605.539,753.86c3.56,5.117 8.154,7.445 1.848,8.539c-5.826,1.011 -16.856,-8.783 -1.848,-8.539Z" style="fill:#6d7f4c;"/><path d="M633.163,302.509c5.028,-3.628 7.171,-6.38 9.312,-0.328c0.813,2.297 -5.688,17.32 -9.312,0.328Z" style="fill:#7e8d5f;"/><path d="M715.312,829.9c7.458,-0.515 7.245,-0.794 10.7,-0.346c-1.189,1.462 -0.562,3.913 -1.751,5.375c-0.561,0.689 -0.782,0.212 -10.723,2.909c0.592,-2.646 1.183,-5.292 1.775,-7.938Z" style="fill:#9aa580;"/><path d="M551.873,656.056c-6.536,0.308 -10.126,2.272 -8.649,-4.184c0.198,-0.866 3.313,-3.593 4.725,-3.787c5.804,-0.798 3.762,2.12 3.923,7.971Z" style="fill:#778656;"/><path d="M789.337,773.493c3.011,-0.056 6.022,-0.113 9.033,-0.169c-4.444,1.626 -4.302,1.866 -9.033,0.169Z" style="fill:#acb896;"/></g></svg>